<?xml version="1.0" standalone="no"?><!DOCTYPE svg PUBLIC "-//W3C//DTD SVG 1.1//EN" "http://www.w3.org/Graphics/SVG/1.1/DTD/svg11.dtd"><svg t="1499526247923" class="icon" style="" viewBox="0 0 1024 1024" version="1.1" xmlns="http://www.w3.org/2000/svg" p-id="3463" xmlns:xlink="http://www.w3.org/1999/xlink" width="32" height="32"><defs><style type="text/css"></style></defs><path d="M872.436584 266.215154l-71.774697 69.064982-98.857519-105.629759 70.419839-67.710125c14.810311-14.790868 41.216727-33.855062 66.86385-8.230452l50.952462 55.627948C904.852878 224.128617 887.246895 251.424286 872.436584 266.215154zM300.955888 602.061179 430.959777 732.066091 300.955888 732.066091 300.955888 602.061179zM761.391489 381.323798l-292.512077 288.448528L363.250676 558.726208l292.512077-287.094694L761.391489 381.323798zM213.397716 255.444856l0 562.869574 564.709479 0L778.107195 407.434479l85.779665-76.238358 0 536.082488c0 21.073968-15.70161 38.128389-36.775578 38.128389L165.744393 905.406998c-21.073968 0-38.128389-17.054421-38.128389-38.128389L127.616004 206.481701c0-21.053502 17.054421-38.108946 38.128389-38.108946l538.726711 0-76.30078 87.072101L213.397716 255.444856z" p-id="3464" fill="#ffffff"></path></svg>