<?xml version="1.0" standalone="no"?><!DOCTYPE svg PUBLIC "-//W3C//DTD SVG 1.1//EN" "http://www.w3.org/Graphics/SVG/1.1/DTD/svg11.dtd"><svg t="1503730157233" class="icon" style="" viewBox="0 0 1024 1024" version="1.1" xmlns="http://www.w3.org/2000/svg" p-id="979" xmlns:xlink="http://www.w3.org/1999/xlink" width="64" height="64"><defs><style type="text/css"></style></defs><path d="M512.001023 1019.623319c-280.353153 0-507.625366-227.270167-507.625366-507.623319 0-280.350083 227.273237-507.623319 507.625366-507.623319s507.623319 227.273237 507.623319 507.623319C1019.624343 792.353153 792.354176 1019.623319 512.001023 1019.623319zM512.001023 613.524255 512.001023 613.524255 512.001023 613.524255 512.001023 613.524255 512.001023 613.524255zM512.001023 59.255569c-250.045893 0-452.747501 202.700585-452.747501 452.744431 0 113.312742 41.915645 216.639039 110.711498 296.048623 44.436048-101.770871 157.682275-177.224354 295.131741-191.525058 1.146103-0.1361 2.245134-0.412392 3.394307-0.539282l43.49563-2.460028c0.00307 0 0.008186 0 0.014326 0l0 0 0 0 0 0c0.00614 0 0.00921 0 0.014326 0-0.00307 0-0.00921 0-0.011256 0 28.977985 0 43.50791 2.460028 43.50791 2.460028 1.128707 0.127913 2.210341 0.393973 3.335978 0.531096 137.139403 14.256702 250.145154 89.414449 294.807353 190.834326 0.040932 0.391926-0.124843 0.826831-0.096191 1.220804 8.020674-9.227152 15.573697-18.825764 22.834055-28.685319-7.124258 9.653871-14.512529 19.107173-22.356171 28.163433-0.107447-0.243547-0.278339-0.458441-0.382717-0.698918 7.770987-8.994861 15.678074-17.877159 22.738887-27.463492 55.284117-75.069743 88.352257-167.507038 88.352257-267.88519C964.745455 261.956154 762.04487 59.255569 512.001023 59.255569zM512.001023 555.513026c-88.11178 0-159.538553-71.429843-159.538553-159.538553 0-88.11178 71.426773-159.538553 159.538553-159.538553 88.10871 0 159.538553 71.426773 159.538553 159.538553C671.539576 484.083184 600.110757 555.513026 512.001023 555.513026zM511.998977 613.524255c-0.00614 0-0.008186 0-0.011256 0C511.989767 613.524255 511.992837 613.524255 511.998977 613.524255L511.998977 613.524255zM512.001023 613.524255c-0.00307 0-0.00307 0-0.00307 0C507.180228 613.524255 505.594103 613.524255 512.001023 613.524255z" p-id="980" fill="#cdcdcd"></path></svg>