<?xml version="1.0" standalone="no"?><!DOCTYPE svg PUBLIC "-//W3C//DTD SVG 1.1//EN" "http://www.w3.org/Graphics/SVG/1.1/DTD/svg11.dtd"><svg t="1500190727116" class="icon" style="" viewBox="0 0 1024 1024" version="1.1" xmlns="http://www.w3.org/2000/svg" p-id="4863" xmlns:xlink="http://www.w3.org/1999/xlink" width="32" height="32"><defs><style type="text/css"></style></defs><path d="M289.024 424.64a20.608 20.608 0 0 0-20.544 20.544v0.576c0 11.264 9.216 20.48 20.48 20.48h470.976c11.264 0 20.48-9.216 20.48-20.48v-0.576a20.608 20.608 0 0 0-20.48-20.48H289.024zM759.936 594.24H289.024a20.608 20.608 0 0 0-20.544 20.544v0.576c0 11.264 9.216 20.48 20.48 20.48h470.976c11.264 0 20.48-9.216 20.48-20.48v-0.576a20.608 20.608 0 0 0-20.48-20.48zM503.68 763.84H289.28c-11.52 0-20.8 9.408-20.8 20.8s9.344 20.8 20.8 20.8h214.4a20.864 20.864 0 0 0 0-41.6z" p-id="4864" fill="#108ee9"></path><path d="M632.448 22.4H258.88a128 128 0 0 0-128 128v723.2a128 128 0 0 0 128 128h531.2a128 128 0 0 0 128-128V307.968L632.448 22.4z m41.6 100.48l143.616 143.552h-55.872c-48.384 0-87.68-39.36-87.68-87.744v-55.872z m202.432 741.12c0 52.928-43.072 96-96 96h-512c-52.928 0-96-43.072-96-96v-704c0-52.928 43.072-96 96-96h363.968v114.688c0 71.104 58.24 129.28 129.344 129.28h114.688V864z" p-id="4865" fill="#108ee9"></path></svg>