<?xml version="1.0" standalone="no"?><!DOCTYPE svg PUBLIC "-//W3C//DTD SVG 1.1//EN" "http://www.w3.org/Graphics/SVG/1.1/DTD/svg11.dtd"><svg t="1499526957761" class="icon" style="" viewBox="0 0 1024 1024" version="1.1" xmlns="http://www.w3.org/2000/svg" p-id="9318" xmlns:xlink="http://www.w3.org/1999/xlink" width="32" height="32"><defs><style type="text/css"></style></defs><path d="M196.535165 234.270605l635.021871 0c19.48375 0 35.279504-15.793708 35.279504-35.279504 0-19.485797-15.795754-35.278481-35.279504-35.278481L196.535165 163.712619c-19.48375 0-35.278481 15.793708-35.278481 35.278481C161.256684 218.47792 177.052438 234.270605 196.535165 234.270605zM831.557036 445.944562 196.535165 445.944562c-19.48375 0-35.278481 15.795754-35.278481 35.279504 0 19.48375 15.795754 35.276435 35.278481 35.276435l635.021871 0c19.48375 0 35.279504-15.793708 35.279504-35.276435C866.836541 461.740316 851.040786 445.944562 831.557036 445.944562zM831.557036 704.659905 196.535165 704.659905c-19.48375 0-35.278481 15.793708-35.278481 35.276435s15.795754 35.278481 35.278481 35.278481l635.021871 0c19.48375 0 35.279504-15.795754 35.279504-35.278481S851.040786 704.659905 831.557036 704.659905z" p-id="9319"></path></svg>