<?xml version="1.0" standalone="no"?><!DOCTYPE svg PUBLIC "-//W3C//DTD SVG 1.1//EN" "http://www.w3.org/Graphics/SVG/1.1/DTD/svg11.dtd"><svg t="1501075937482" class="icon" style="" viewBox="0 0 1024 1024" version="1.1" xmlns="http://www.w3.org/2000/svg" p-id="2658" xmlns:xlink="http://www.w3.org/1999/xlink" width="128" height="128"><defs><style type="text/css"></style></defs><path d="M512 663.398006C541.589985 663.398006 565.505265 652.384901 565.505265 638.968888 565.505265 625.549128 541.589985 614.536023 512 614.536023 482.410015 614.536023 458.494735 625.549128 458.494735 638.968888 458.494735 652.384901 482.581294 663.398006 512 663.398006M534.367519 752.514268C527.657636 756.98752 523.184384 759.224146 512.171279 759.224146 500.988145 759.224146 496.514893 754.750894 489.980042 752.514268 483.270159 748.041011 476.560282 743.571512 461.07392 743.571512 445.592566 743.571512 438.882683 748.041011 432.1728 752.514268 425.461673 756.98752 420.988416 759.224146 409.976566 759.224146 398.797179 759.224146 394.323927 754.750894 387.785324 752.514268 381.075446 748.041011 374.364314 743.571512 358.884209 743.571512 356.647578 743.571512 354.409702 745.808138 354.409702 748.041011 354.409702 750.277637 356.647578 752.514268 358.884209 752.514268 370.062341 752.514268 374.535593 756.98752 381.075446 759.224146 387.785324 763.697398 394.495206 768.170655 409.976566 768.170655 425.461673 768.170655 432.1728 763.697398 438.882683 759.224146 445.592566 754.750894 450.065818 752.514268 461.07392 752.514268 472.085775 752.514268 476.730307 756.98752 483.270159 759.224146 489.980042 763.697398 496.68992 768.170655 512.171279 768.170655 527.657636 768.170655 534.367519 763.697398 541.077396 759.224146 547.787279 754.750894 552.255529 752.514268 563.268639 752.514268 574.451768 752.514268 578.925025 756.98752 585.464878 759.224146 592.169754 763.697398 598.879636 768.170655 614.365993 768.170655 629.852355 768.170655 636.55723 763.697398 643.267113 759.224146 649.978245 754.750894 654.451497 752.514268 665.463352 752.514268 667.699978 752.514268 669.936604 750.277637 669.936604 748.041011 669.936604 745.808138 667.699978 743.571512 665.463352 743.571512 652.043592 743.571512 643.267113 748.041011 636.55723 752.514268 629.852355 756.98752 625.379098 759.224146 614.365993 759.224146 603.182858 759.224146 598.709606 754.750894 592.169754 752.514268 585.464878 748.041011 578.754995 743.571512 563.268639 743.571512 547.612247 743.571512 541.077396 748.041011 534.367519 752.514268M739.099505 471.914496C739.099505 471.914496 712.430013 458.494735 687.830871 458.494735 630.023634 458.494735 583.228247 505.290117 583.228247 563.097359 583.228247 605.419489 607.656115 641.030487 645.503739 656.686874 645.503739 656.686874 661.16138 663.398006 667.699978 665.634632 712.258734 685.592991 741.159854 719.138642 741.159854 754.750894 741.159854 792.60352 710.022108 825.977892 658.753469 846.108785 614.194714 857.291919 565.163955 866.063396 511.82997 866.063396L507.355469 866.063396C456.088079 866.063396 407.227351 859.353513 360.431969 846.108785 311.399956 826.149171 278.020582 792.60352 278.020582 754.750894 278.020582 719.138642 306.926705 688.000901 351.48546 665.634632 358.195338 661.160125 373.676698 656.686874 373.676698 656.686874 409.292698 641.030487 435.957192 603.181609 435.957192 563.097359 435.957192 505.290117 389.161805 458.494735 331.354568 458.494735 306.926705 458.494735 282.32256 471.914496 280.085934 471.914496 199.916175 512 142.108938 587.701504 124.214676 676.817766 117.504794 652.384901 110.794916 625.549128 110.794916 596.643011 110.794916 585.464878 113.031542 574.451768 113.031542 563.268639 150.880415 592.169754 199.916175 436.298496 202.147804 425.290394 215.568814 385.206139 237.765053 347.353513 264.429548 313.977892 253.245158 307.268009 242.238305 300.558131 235.528428 289.550029 208.858931 253.934029 211.095562 180.474153 231.053921 164.817766 251.008532 149.160125 322.408064 167.054392 349.077555 202.66539 355.787433 211.611899 362.492314 222.625004 364.72894 236.039762 409.292698 213.848525 458.32471 200.428764 509.422065 200.428764L511.658691 200.428764C567.400581 200.428764 618.492938 213.848525 663.055447 238.276388 665.293322 224.861629 671.998203 211.611899 678.708081 200.428764 705.377577 164.817766 776.600822 146.9235 796.730465 162.58114 816.690079 178.237527 821.163331 251.697398 792.257213 287.313398 783.310705 300.729411 770.065971 309.50464 756.646211 316.214518 783.310705 347.353513 803.441597 385.206139 816.690079 425.290394 818.926705 434.238152 867.958712 592.344786 905.806341 563.268639 908.042967 574.451768 908.042967 585.464878 908.042967 596.643011 908.042967 623.312502 901.333084 650.14827 890.149955 676.817766 877.24778 587.701504 817.032637 512 739.099505 471.914496M801.551278 674.58114C792.604769 683.527644 777.118413 683.527644 768.171904 672.344509L716.903265 616.602619C707.956762 621.075876 699.009004 623.312502 688.00215 623.312502 652.384901 623.312502 623.483781 594.40638 623.483781 558.795382 623.483781 523.183135 652.384901 494.277012 688.00215 494.277012 723.613148 494.277012 752.514268 523.183135 752.514268 558.795382 752.514268 567.741891 750.277637 574.451768 748.041011 580.990372L801.551278 638.793861C812.55938 652.384901 810.321505 667.871258 801.551278 674.58114M267.183759 594.40638 285.076772 576.51712C282.840146 572.043863 282.840146 567.570611 282.840146 563.097359 282.840146 536.427863 302.794757 516.301972 329.635528 516.301972 356.300022 516.301972 376.430915 536.256584 376.430915 563.097359 376.430915 589.933128 356.471301 609.892741 329.635528 609.892741 325.162276 609.892741 322.92565 609.892741 318.452398 607.656115L302.794757 627.614474C293.848248 636.55723 278.366894 638.793861 269.420385 629.851105 258.237251 619.010524 258.237251 603.352888 267.183759 594.40638M512 0C229.336136 0 0 229.334881 0 512 0 794.665119 229.336136 1024 512 1024 794.665119 1024 1024 794.665119 1024 512 1024 229.334881 794.841395 0 512 0" p-id="2659" fill="#1296db"></path></svg>