<?xml version="1.0" standalone="no"?><!DOCTYPE svg PUBLIC "-//W3C//DTD SVG 1.1//EN" "http://www.w3.org/Graphics/SVG/1.1/DTD/svg11.dtd"><svg t="1500724195554" class="icon" style="" viewBox="0 0 1024 1024" version="1.1" xmlns="http://www.w3.org/2000/svg" p-id="2386" xmlns:xlink="http://www.w3.org/1999/xlink" width="32" height="32"><defs><style type="text/css"></style></defs><path d="M949.823604 923.655617L668.245554 642.078591a14.97711 14.97711 0 0 0-1.558496-1.339508c54.125735-60.502979 87.038332-140.381238 87.038332-227.950666 0-188.897208-153.131633-342.02884-342.02884-342.02884S69.667709 223.89121 69.667709 412.788417s153.131633 342.02884 342.028841 342.028841c57.003272 0 110.738104-13.963013 158.00257-38.627762l-25.979698-25.979698c-39.743166 18.869766-84.189448 29.441543-131.110083 29.441542-169.044044 0-306.081117-137.037073-306.081117-306.081117s137.037073-306.081117 306.081117-306.081117 306.081117 137.037073 306.081117 306.081117c0 90.296539-39.108716 171.45086-101.302197 227.474828l24.167422 24.167423c0.483001 0.678452 1.007957 1.335415 1.614777 1.942235l281.578051 281.57805c6.378268 6.378268 17.162892 5.936199 24.086581-0.988514 6.92369-6.925736 7.366781-17.709337 0.988514-24.088628z" fill="#108ee9" p-id="2387"></path><path d="M184.561459 278.329053c-16.72901 14.3488-37.09485 45.654806-39.19979 87.748506-2.390443 26.728758 25.695219 27.075659 24.204261 6.3138-3.1569-43.935652 34.028001-75.422783 38.936801-85.23936 4.471848-8.944719-8.156774-22.36231-23.941272-8.822946z" fill="#108ee9" p-id="2388"></path></svg>